<svg xmlns="http://www.w3.org/2000/svg" xmlns:xlink="http://www.w3.org/1999/xlink" viewBox="0 0 1024 1024"><defs><style>.cls-1{fill:url(#radial-gradient);}.cls-2{fill:url(#linear-gradient);}</style><radialGradient id="radial-gradient" cx="654.7" cy="607.46" fx="1230.613080421438" fy="827.1667210523176" r="616.39" gradientTransform="translate(976.94 1444) rotate(-154.14) scale(1 1.01)" gradientUnits="userSpaceOnUse"><stop offset="0" stop-color="#fff"/><stop offset="0.04" stop-color="#def2fa"/><stop offset="0.11" stop-color="#abdef3"/><stop offset="0.17" stop-color="#7fcded"/><stop offset="0.24" stop-color="#5bbfe8"/><stop offset="0.31" stop-color="#40b4e4"/><stop offset="0.38" stop-color="#2cace1"/><stop offset="0.45" stop-color="#20a8e0"/><stop offset="0.52" stop-color="#1ca6df"/><stop offset="1" stop-color="#1ca6df"/></radialGradient><linearGradient id="linear-gradient" x1="1225.48" y1="-290.56" x2="545.14" y2="474.64" gradientUnits="userSpaceOnUse"><stop offset="0" stop-color="#fff"/><stop offset="0.17" stop-color="#a1a0ad"/><stop offset="1" stop-color="#071835"/></linearGradient></defs><title>icon</title><g id="_1024x1024" data-name="1024x1024"><rect class="cls-1" width="1024" height="1024"/><path d="M277.91,224.16c70.66-64.24,167.25-100.94,263.35-90.8C639,143.6,726.07,190.53,786,268.91c44,57.75,67.7,129.34,68.73,201.48.51-74.59-23.22-149.06-68.73-208.76C726.07,183.25,639,136.32,541.26,126.08c-96.1-10.14-192.69,26.56-263.35,90.8C205.74,282.42,166.57,380.55,169.34,477.4,168.68,382.93,207.55,288.06,277.91,224.16Z"/><path d="M390.09,741.27v-.56c-3.27-1.44-6.46-2.91-9.65-4.45L378,735C279.78,686.61,212,586,210.85,469.36c0,1.43-.11,2.84-.11,4.28,0,117.9,68.2,219.84,167.25,268.67l2.45,1.23c3.19,1.54,6.38,3,9.65,4.45v.56c4.15,2.54,6.67,6.94,7.51,12C398.9,752.61,396.15,745,390.09,741.27Z"/><path d="M619.76,752.73l16.9-7.6c102.22-47.65,173.1-151.27,173.1-271.49,0-1.45-.09-2.87-.11-4.31-1.17,118.94-71.62,221.26-173,268.52l-16.9,7.6c-6.84,3.07-9.95,10.65-8.53,18.79A15,15,0,0,1,619.76,752.73Z"/><path d="M348.77,437h317.5c10.7,0,19.39,10.1,20.39,23,.06-.81.2-1.59.2-2.41,0-14-9.21-25.39-20.59-25.39H348.77c-11.35,0-20.58,11.36-20.58,25.39,0,.83.13,1.61.2,2.41C329.39,447.08,338.08,437,348.77,437Z"/><path class="cls-2" d="M0,0V1023.91H1023.91V0ZM533,864.44C533,875.8,521.65,885,507.62,885s-25.36-9.21-25.36-20.57V547c0-11.36,11.36-20.56,25.36-20.56S533,535.62,533,547ZM348.89,482.65c-11.35,0-20.57-11.39-20.57-25.36s9.22-25.39,20.57-25.39H666.37c11.37,0,20.59,11.36,20.59,25.39s-9.21,25.36-20.59,25.36Zm498.39,58.19C826,639.59,760.75,725.07,671.54,772.43c-1,.54-2,.87-3,1.32a14.06,14.06,0,0,1-2.83,1.72l-24.42,11c-9.07,4.11-21.28-1.29-27.25-12s-3.45-22.77,5.64-26.85l16.9-7.6c102.22-47.65,173.09-151.26,173.09-271.46,0-165.42-134.08-299.49-299.47-299.49s-299.5,134.07-299.5,299.49c0,117.89,68.19,219.82,167.24,268.65l2.45,1.22c3.19,1.54,6.38,3,9.65,4.45v.56c7.9,4.85,10.31,16.3,5.26,26.39-5.32,10.55-16.72,15.54-25.49,11.1L356.09,774a45.17,45.17,0,0,1-5.86-2.64c-1.28-.69-2.5-1.47-3.75-2.19l-.22-.11A.74.74,0,0,0,346,769c-99-55.31-165.75-156.95-175.61-270.05C161.47,396,200.91,289,277.88,219.11c70.66-64.24,167.23-100.93,263.33-90.79C639,138.56,726,185.49,785.89,263.86,845.35,341.86,867.8,445.09,847.29,540.84Z"/></g></svg>